# xmcd
#
# Track frame offsets: 
#        150
#        13447
#        31988
#        42701
#        53425
#        65317
#        77674
#        91917
#        103324
#        116531
#        125984
#        136140
#        146186
#        159859
#        172392
#        189599
#        199232
#        210309
#
# Disc length: 3009 seconds
#
# Revision: 0
# Processed by: cddbd v1.5.2PL0 Copyright (c) Steve Scherf et al.
# Submitted via: ExactAudioCopyFreeDBPlugin 1.0
#
DISCID=0a0bbf12
DTITLE=Various Artist - 18 Greatest Country Legends
DYEAR=2006
DGENRE=Country
TTITLE0=Hank Williams - Jambalaya (On The Bayou)
TTITLE1=Johnny Cash - One Piece At A Time
TTITLE2=Waylon Jennings - Only Daddy That'll Walk The Line (Live)
TTITLE3=Willie Nelson - Blue Eye Crying In The Rain
TTITLE4=Patsy Cline - Walkin' After Midnight
TTITLE5=Merle Haggard - I Take A Lot Of Pride In What I Am
TTITLE6=George Jones - A Good Year For The Roses
TTITLE7=Conway Twitty - Hello Darlin'
TTITLE8=Ray Price - City Lights
TTITLE9=Webb Pierce - Honky Tonk Song
TTITLE10=Jim Reeves - He'll Have To Go (Live)
TTITLE11=Marty Robbins - Knee Deep In The Blues
TTITLE12=Tammy Wynette - D - I - V - O - R - C - E
TTITLE13=Charlie Rich - Behind Closed Doors
TTITLE14=Glen Campbell - Southern Nights (Live)
TTITLE15=Ernest Tubb - Walking The Floor Over You
TTITLE16=Faron Young - Wine Me Up
TTITLE17=Don Gibson - Sweet Dreams
EXTD=
EXTT0=
EXTT1=
EXTT2=
EXTT3=
EXTT4=
EXTT5=
EXTT6=
EXTT7=
EXTT8=
EXTT9=
EXTT10=
EXTT11=
EXTT12=
EXTT13=
EXTT14=
EXTT15=
EXTT16=
EXTT17=
PLAYORDER=
